<?xml version="1.0" encoding="UTF-8"?>
<svg id="Layer_1" xmlns="http://www.w3.org/2000/svg" xmlns:xlink="http://www.w3.org/1999/xlink" version="1.1" viewBox="0 0 360 360">
  <!-- Generator: Adobe Illustrator 30.3.0, SVG Export Plug-In . SVG Version: 2.1.3 Build 182)  -->
  <defs>
    <style>
      .st0 {
        fill: url(#linear-gradient2);
      }

      .st1 {
        fill: url(#linear-gradient1);
      }

      .st2 {
        fill: #231f20;
      }

      .st3 {
        fill: url(#linear-gradient);
      }

      .st4 {
        fill: #fff;
        stroke: #000;
        stroke-miterlimit: 10;
        stroke-width: .25px;
      }
    </style>
    <linearGradient id="linear-gradient" x1="179.71" y1="82.15" x2="179.71" y2="293.15" gradientTransform="translate(0 360) scale(1 -1)" gradientUnits="userSpaceOnUse">
      <stop offset="0" stop-color="#fff1d4"/>
      <stop offset=".5" stop-color="#ffd024"/>
      <stop offset="1" stop-color="#f8f5b7"/>
    </linearGradient>
    <linearGradient id="linear-gradient1" x1="252.89" y1="95.08" x2="252.89" y2="279.04" gradientTransform="translate(0 360) scale(1 -1)" gradientUnits="userSpaceOnUse">
      <stop offset="0" stop-color="#caadd2"/>
      <stop offset=".4" stop-color="#8254a2"/>
      <stop offset="1" stop-color="#2d2d87"/>
    </linearGradient>
    <linearGradient id="linear-gradient2" x1="101.41" y1="95.08" x2="101.41" y2="279.07" gradientTransform="translate(0 360) scale(1 -1)" gradientUnits="userSpaceOnUse">
      <stop offset="0" stop-color="#caadd2"/>
      <stop offset=".4" stop-color="#8254a2"/>
      <stop offset="1" stop-color="#2d2d87"/>
    </linearGradient>
  </defs>
  <path class="st3" d="M66.77,96.43c1.21-2.41,3.06-4.41,5.36-5.76,11.18-6.61,46.98-25.42,85.04-20.17,23.06,3.19,33.93,10.42,39.04,16.82,4.27,5.37,11.59,6.87,17.38,3.33,13.2-8.06,34.44-19.15,53.93-21,28.53-2.71,65.97,3.08,83.77,17.03,2.96,2.32,4.86,5.76,5.34,9.57.51,4.1.73,8.73.33,13.76-1.35,16.87-8.88,29.76-15.08,37.78-3.31,4.29-3.78,10.12-1.32,15,.56,1.1,1.08,2.28,1.59,3.51,11.08,27.21-4.16,60.86-20.38,79.68-27.13,31.47-67.1,33.14-85.24,33.9-23.6.99-43.03-4.01-55.85-8.54-2.49-.88-5.17-.99-7.72-.34-11.05,2.82-43.14,9.47-64.33-2.14-.84-.45-1.59-1.01-2.32-1.64-.05-.03-.08-.08-.12-.11-4.84-4.21-15.93-1.25-15.93-1.25-12.03,3.22-42.36,11.35-61.48,4.95-12.1-4.06-22.91-15-25.85-27.07-2.91-11.89,4.41-18.82,14.52-42.6,16.59-39.04,42.38-90.81,49.33-104.69v-.02Z"/>
  <g>
    <g>
      <path class="st2" d="M209.85,184.5c4.47,0,8.59.46,12.35,1.36,3.76.91,7.01,2.41,9.74,4.52s4.91,4.86,6.53,8.28c1.64,3.42,2.6,7.65,2.89,12.65,3.16-.54,5.09-2.14,5.8-4.78.56-2.09.51-4.74-.14-7.92s-2.23-6.3-4.75-9.3c-2.52-3.02-6.21-5.59-11.07-7.72s-11.16-3.22-18.91-3.22c-4.38,0-8.23.37-11.58,1.1-3.34.73-6.18,1.5-8.48,2.32-2.76-1.64-5.06-3.76-6.92-6.36-1.86-2.6-3.23-5.54-4.13-8.82s-1.32-6.84-1.24-10.66c.06-3.82.63-7.75,1.72-11.76,3-11.22,8-20.83,14.98-28.87,6.98-8.02,15.04-14.56,24.21-19.63,9.15-5.06,18.93-8.78,29.32-11.14,10.39-2.37,20.51-3.56,30.37-3.56,8.84,0,16.73.54,23.64,1.64,6.9,1.1,12.96,2.54,18.14,4.3,5.17,1.78,9.58,3.79,13.23,6.02,3.64,2.23,6.61,4.49,8.93,6.78.22,2.93.14,6.11-.23,9.58-.39,3.47-1.07,7.07-2.07,10.8-.67,2.46-1.56,5.05-2.69,7.72-1.13,2.69-2.45,5.31-3.95,7.86s-3.2,4.97-5.09,7.24-3.92,4.24-6.1,5.88c-1.19-1.01-3.03-2.12-5.53-3.36-2.49-1.22-5.4-2.37-8.73-3.42-3.33-1.05-6.98-1.93-10.97-2.66-3.99-.73-8.1-1.1-12.29-1.1-5.74,0-9.84.42-12.31,1.24-2.46.82-3.92,2.11-4.38,3.82-.25.91-.31,1.69-.22,2.32,1.95-.45,4.04-.77,6.27-.96,2.24-.19,4.36-.28,6.36-.28,7.85,0,15.29.98,22.33,2.94,7.04,1.97,12.94,5.2,17.71,9.72,4.77,4.52,7.99,10.46,9.64,17.85,1.67,7.38,1.07,16.47-1.83,27.23-2.28,8.48-6.25,16.52-11.92,24.07-5.68,7.57-12.82,14.22-21.42,19.97-8.61,5.74-18.59,10.31-29.93,13.68-11.35,3.37-23.87,5.06-37.53,5.06-7.03,0-13.53-.25-19.5-.76-5.97-.5-11.59-1.32-16.86-2.46-5.26-1.15-10.18-2.65-14.8-4.52-4.61-1.87-9.07-4.13-13.37-6.78-1.84-4.38-3.05-9.02-3.65-13.95s-.05-10.53,1.64-16.82c1.32-4.92,3.48-9.53,6.5-13.82,3.02-4.29,6.59-8,10.71-11.14,4.13-3.14,8.71-5.63,13.76-7.46,5.05-1.83,10.31-2.74,15.79-2.74l.03.03Z"/>
      <path class="st2" d="M192.68,112.79c-.08-2.76-.59-7.74-3.62-12.8-3.3-5.53-7.8-8.34-11.93-10.6-5.01-2.74-10.83-4.74-17.47-6.02-6.64-1.27-13.51-1.92-20.62-1.92-5.39,0-10.83.34-16.34,1.02s-10.93,1.67-16.25,2.94c-5.31,1.28-10.45,2.85-15.42,4.72-4.97,1.87-9.53,3.95-13.7,6.22L13.29,226.58c-.57,1.1-1.04,2.17-1.41,3.22-.37,1.05-.7,2.07-.96,3.08-1.22,4.57-1.05,8.68.51,12.38s4.13,6.84,7.72,9.44c3.59,2.6,8.06,4.63,13.42,6.08s11.27,2.18,17.74,2.18c5.2,0,10.23-.5,15.11-1.5s9.32-2.28,13.34-3.82c4.02-1.55,7.48-3.22,10.37-5,2.89-1.78,4.95-3.44,6.19-5-.37-1.01-.39-3.39-.06-7.18.33-3.78,1.08-8.87,2.24-15.25-3.33-.19-6.44-.54-9.35-1.1-2.91-.54-5.43-1.25-7.57-2.12s-3.76-1.87-4.88-3c-1.11-1.15-1.49-2.4-1.11-3.76.2-.73.51-1.39.94-1.98s.9-1.11,1.38-1.58c.88.82,2.01,1.67,3.42,2.52,1.41.87,3.16,1.67,5.25,2.4s4.58,1.35,7.51,1.84c2.93.51,6.35.76,10.26.76,2.09,0,4.4-.15,6.9-.48,2.51-.33,5.05-.79,7.63-1.44,2.58-.63,5.11-1.44,7.55-2.4,2.45-.96,4.64-2.03,6.61-3.22.94.91,1.22,2.11.82,3.56-.29,1.1-1.3,2.18-3,3.28-1.7,1.1-3.79,2.07-6.25,2.94-2.48.87-5.17,1.59-8.11,2.18-2.94.59-5.84.94-8.68,1.02l-1.45,16.69c-.34,3.65.25,6.83,1.76,9.5,1.52,2.69,3.75,4.92,6.69,6.7,2.94,1.78,6.53,3.13,10.76,4.04,4.24.91,7.49,1.08,13.99,1.36,4.07.17,6.87.29,10.8.05,4.15-.26,7.18-.79,10.83-1.42,3.08-.54,7.17-1.35,11.96-2.58-3.92-2.41-7.83-4.81-11.76-7.23-2.17-5.14-6.93-18.48-2.45-33.53,2.72-9.13,7.82-15.4,10.63-18.81,6.07-7.32,12.6-11.78,16.96-14.3-2.97-3.2-7.4-8.87-9.61-16.96-3.13-11.48.03-21.17,2.86-29.84,2.01-6.14,5.93-15.6,13.9-25.55l-.03.03ZM97.32,185.13c-1.42,3.95-3.62,7.6-6.02,8.02-2.37.4-4.12-2.52-5.09-6.01-4.15.8-8.06.71-8.68-1.28-.6-2,2.26-5.22,5.76-8.02-1.15-3.45-1.36-7.15.65-8.81,2-1.64,5.53-.7,8.65,1.07,3.44-2.94,7.23-5.15,9.07-4.16s1.16,4.78-.42,8.67c3.28,1.63,5.84,3.98,4.97,6.24-.87,2.24-4.81,3.65-8.92,4.29h.03ZM158.2,164.72c-4.44,4.35-13.28,3.36-21.41.37-7.6,7.74-16.25,13.93-21.03,12.31-4.77-1.63-4.12-10.43-1.36-19.73-8.45-2.65-15.32-7.12-13.81-12.54,1.5-5.36,10.76-9.81,20.59-12.55,2.37-9.38,6.76-18.36,12.48-20.06,5.7-1.69,10.77,4.38,14.07,11.98,9.92-3.17,19.5-4.23,21.53.12,2.01,4.32-4.12,12.52-11.9,19.95,3.75,7.43,5.29,15.76.82,20.14l.03.02Z"/>
    </g>
    <g>
      <path class="st1" d="M209.85,184.5c4.47,0,8.59.46,12.35,1.36,3.76.91,7.01,2.41,9.74,4.52s4.91,4.86,6.53,8.28c1.64,3.42,2.6,7.65,2.89,12.65,3.16-.54,5.09-2.14,5.8-4.78.56-2.09.51-4.74-.14-7.92s-2.23-6.3-4.75-9.3c-2.52-3.02-6.21-5.59-11.07-7.72s-11.16-3.22-18.91-3.22c-4.38,0-8.23.37-11.58,1.1-3.34.73-6.18,1.5-8.48,2.32-2.76-1.64-5.06-3.76-6.92-6.36-1.86-2.6-3.23-5.54-4.13-8.82s-1.32-6.84-1.24-10.66c.06-3.82.63-7.75,1.72-11.76,3-11.22,8-20.83,14.98-28.87,6.98-8.02,15.04-14.56,24.21-19.63,9.15-5.06,18.93-8.78,29.32-11.14,10.39-2.37,20.51-3.56,30.37-3.56,8.84,0,16.73.54,23.64,1.64,6.9,1.1,12.96,2.54,18.14,4.3,5.17,1.78,9.58,3.79,13.23,6.02,3.64,2.23,6.61,4.49,8.93,6.78.22,2.93.14,6.11-.23,9.58-.39,3.47-1.07,7.07-2.07,10.8-.67,2.46-1.56,5.05-2.69,7.72-1.13,2.69-2.45,5.31-3.95,7.86s-3.2,4.97-5.09,7.24-3.92,4.24-6.1,5.88c-1.19-1.01-3.03-2.12-5.53-3.36-2.49-1.22-5.4-2.37-8.73-3.42-3.33-1.05-6.98-1.93-10.97-2.66-3.99-.73-8.1-1.1-12.29-1.1-5.74,0-9.84.42-12.31,1.24-2.46.82-3.92,2.11-4.38,3.82-.25.91-.31,1.69-.22,2.32,1.95-.45,4.04-.77,6.27-.96,2.24-.19,4.36-.28,6.36-.28,7.85,0,15.29.98,22.33,2.94,7.04,1.97,12.94,5.2,17.71,9.72,4.77,4.52,7.99,10.46,9.64,17.85,1.67,7.38,1.07,16.47-1.83,27.23-2.28,8.48-6.25,16.52-11.92,24.07-5.68,7.57-12.82,14.22-21.42,19.97-8.61,5.74-18.59,10.31-29.93,13.68-11.35,3.37-23.87,5.06-37.53,5.06-7.03,0-13.53-.25-19.5-.76-5.97-.5-11.59-1.32-16.86-2.46-5.26-1.15-10.18-2.65-14.8-4.52-4.61-1.87-9.07-4.13-13.37-6.78-1.84-4.38-3.05-9.02-3.65-13.95s-.05-10.53,1.64-16.82c1.32-4.92,3.48-9.53,6.5-13.82,3.02-4.29,6.59-8,10.71-11.14,4.13-3.14,8.71-5.63,13.76-7.46,5.05-1.83,10.31-2.74,15.79-2.74l.03.03Z"/>
      <path class="st0" d="M192.68,112.79c-.08-2.76-.59-7.74-3.62-12.8-3.3-5.53-7.8-8.34-11.93-10.6-5.01-2.74-10.83-4.74-17.47-6.02-6.64-1.27-13.51-1.92-20.62-1.92-5.39,0-10.83.34-16.34,1.02s-10.93,1.67-16.25,2.94c-5.31,1.28-10.45,2.85-15.42,4.72-4.97,1.87-9.53,3.95-13.7,6.22L13.29,226.58c-.57,1.1-1.04,2.17-1.41,3.22-.37,1.05-.7,2.07-.96,3.08-1.22,4.57-1.05,8.68.51,12.38s4.13,6.84,7.72,9.44c3.59,2.6,8.06,4.63,13.42,6.08s11.27,2.18,17.74,2.18c5.2,0,10.23-.5,15.11-1.5s9.32-2.28,13.34-3.82c4.02-1.55,7.48-3.22,10.37-5,2.89-1.78,4.95-3.44,6.19-5-.37-1.01-.39-3.39-.06-7.18.33-3.78,1.08-8.87,2.24-15.25-3.33-.19-6.44-.54-9.35-1.1-2.91-.54-5.43-1.25-7.57-2.12s-3.76-1.87-4.88-3c-1.11-1.15-1.49-2.4-1.11-3.76.2-.73.51-1.39.94-1.98s.9-1.11,1.38-1.58c.88.82,2.01,1.67,3.42,2.52,1.41.87,3.16,1.67,5.25,2.4s4.58,1.35,7.51,1.84c2.93.51,6.35.76,10.26.76,2.09,0,4.4-.15,6.9-.48,2.51-.33,5.05-.79,7.63-1.44,2.58-.63,5.11-1.44,7.55-2.4,2.45-.96,4.64-2.03,6.61-3.22.94.91,1.22,2.11.82,3.56-.29,1.1-1.3,2.18-3,3.28-1.7,1.1-3.79,2.07-6.25,2.94-2.48.87-5.17,1.59-8.11,2.18-2.94.59-5.84.94-8.68,1.02l-1.45,16.69c-.34,3.65.25,6.83,1.76,9.5,1.52,2.69,3.75,4.92,6.69,6.7,2.94,1.78,6.53,3.13,10.76,4.04,4.24.91,7.49,1.08,13.99,1.36,4.07.17,6.87.29,10.8.05,4.15-.26,7.18-.79,10.83-1.42,3.08-.54,7.17-1.35,11.96-2.58-3.92-2.41-7.83-4.81-11.76-7.23-2.17-5.14-6.93-18.48-2.45-33.53,2.72-9.13,7.82-15.4,10.63-18.81,6.07-7.32,12.6-11.78,16.96-14.3-2.97-3.2-7.4-8.87-9.61-16.96-3.13-11.48.03-21.17,2.86-29.84,2.01-6.14,5.93-15.6,13.9-25.55l-.03.03ZM97.32,185.13c-1.42,3.95-3.62,7.6-6.02,8.02-2.37.4-4.12-2.52-5.09-6.01-4.15.8-8.06.71-8.68-1.28-.6-2,2.26-5.22,5.76-8.02-1.15-3.45-1.36-7.15.65-8.81,2-1.64,5.53-.7,8.65,1.07,3.44-2.94,7.23-5.15,9.07-4.16s1.16,4.78-.42,8.67c3.28,1.63,5.84,3.98,4.97,6.24-.87,2.24-4.81,3.65-8.92,4.29h.03ZM158.2,164.72c-4.44,4.35-13.28,3.36-21.41.37-7.6,7.74-16.25,13.93-21.03,12.31-4.77-1.63-4.12-10.43-1.36-19.73-8.45-2.65-15.32-7.12-13.81-12.54,1.5-5.36,10.76-9.81,20.59-12.55,2.37-9.38,6.76-18.36,12.48-20.06,5.7-1.69,10.77,4.38,14.07,11.98,9.92-3.17,19.5-4.23,21.53.12,2.01,4.32-4.12,12.52-11.9,19.95,3.75,7.43,5.29,15.76.82,20.14l.03.02Z"/>
    </g>
  </g>
  <path class="st4" d="M122.92,134.61c2.11-6.75,6.41-14.13,8.44-13.53.99.29,1.81,2.6.94,11.55,0,0,4.5-11.55,5.54-.84,1.04,10.71-7.58,12-6.27,4.84-6.67,12.66-8.81,13.16-9.53,12.91-1.89-.65-1.04-8.78.87-14.94h.02Z"/>
</svg>